<svg width="47" height="49" viewBox="0 0 47 49" fill="none" xmlns="http://www.w3.org/2000/svg">
<path d="M20 30.8706C20 28.7482 21.7672 27 23.9127 27C26.0581 27 27.8253 28.7482 27.8253 30.8706C27.8253 31.7504 27.4613 32.5155 26.9558 33.1687V35.1712C26.9558 36.8167 25.576 38.1816 23.9127 38.1816C22.2493 38.1816 20.8695 36.8167 20.8695 35.1712V33.1687C20.364 32.5155 20 31.7504 20 30.8706Z" stroke="#F0380F" stroke-width="3"/>
<path d="M2 22C2 19.7909 3.79086 18 6 18H41C43.2091 18 45 19.7909 45 22V43C45 45.2091 43.2091 47 41 47H6C3.79086 47 2 45.2091 2 43V22Z" stroke="#F0380F" stroke-width="3"/>
<path d="M11 14.5C11 7.59644 16.5964 2 23.5 2C30.4036 2 36 7.59644 36 14.5V18H11V14.5Z" stroke="#F0380F" stroke-width="3"/>
</svg>
